<svg width="27" height="27" viewBox="0 0 27 27" fill="none" xmlns="http://www.w3.org/2000/svg">
<path d="M15.6316 2.13158C15.6316 1.56625 15.407 1.02407 15.0073 0.624325C14.6075 0.224576 14.0653 0 13.5 0C12.9347 0 12.3925 0.224576 11.9927 0.624325C11.593 1.02407 11.3684 1.56625 11.3684 2.13158V11.3684H2.13158C1.56625 11.3684 1.02407 11.593 0.624325 11.9927C0.224576 12.3925 0 12.9347 0 13.5C0 14.0653 0.224576 14.6075 0.624325 15.0073C1.02407 15.407 1.56625 15.6316 2.13158 15.6316H11.3684V24.8684C11.3684 25.4337 11.593 25.9759 11.9927 26.3757C12.3925 26.7754 12.9347 27 13.5 27C14.0653 27 14.6075 26.7754 15.0073 26.3757C15.407 25.9759 15.6316 25.4337 15.6316 24.8684V15.6316H24.8684C25.4337 15.6316 25.9759 15.407 26.3757 15.0073C26.7754 14.6075 27 14.0653 27 13.5C27 12.9347 26.7754 12.3925 26.3757 11.9927C25.9759 11.593 25.4337 11.3684 24.8684 11.3684H15.6316V2.13158Z" fill="white"/>
</svg>
