<svg width="27" height="27" viewBox="0 0 27 27" fill="none" xmlns="http://www.w3.org/2000/svg">
<path d="M26.7044 12.9013L14.0485 0.245351C13.8904 0.0882051 13.6766 0 13.4537 0C13.2308 0 13.0169 0.0882051 12.8588 0.245351L0.202881 12.9013C0.0646556 13.0627 -0.00757279 13.2703 0.000629239 13.4827C0.00883127 13.695 0.0968597 13.8965 0.247123 14.0467C0.397387 14.197 0.598819 14.285 0.811166 14.2932C1.02351 14.3014 1.23113 14.2292 1.39254 14.091L13.4494 2.03406L25.5064 14.0994C25.6678 14.2376 25.8754 14.3099 26.0877 14.3017C26.3001 14.2935 26.5015 14.2054 26.6518 14.0552C26.802 13.9049 26.8901 13.7035 26.8983 13.4911C26.9065 13.2788 26.8342 13.0711 26.696 12.9097L26.7044 12.9013Z" fill="white"/>
<path d="M21.8867 25.3125H17.6681V16.8752H9.23076V25.3125H5.01211V13.5003L3.32465 15.1877V25.3125C3.32465 25.7601 3.50243 26.1893 3.81889 26.5057C4.13535 26.8222 4.56456 27 5.01211 27H10.9182V18.5627H15.9806V27H21.8867C22.3343 27 22.7635 26.8222 23.0799 26.5057C23.3964 26.1893 23.5742 25.7601 23.5742 25.3125V14.9853L21.8867 13.2978V25.3125Z" fill="white"/>
</svg>
