<svg width="27" height="27" viewBox="0 0 27 27" fill="none" xmlns="http://www.w3.org/2000/svg">
<path d="M16.872 2.29112C16.6846 2.10392 16.4305 1.99878 16.1656 1.99878C15.9007 1.99878 15.6467 2.10392 15.4592 2.29112L2.29112 15.4592C2.10392 15.6467 1.99878 15.9007 1.99878 16.1656C1.99878 16.4305 2.10392 16.6846 2.29112 16.872L3.71588 18.2954C4.41252 17.9062 5.21715 17.755 6.00756 17.8647C6.79797 17.9745 7.53097 18.3392 8.09524 18.9034C8.6595 19.4677 9.0242 20.2007 9.13393 20.9911C9.24367 21.7815 9.09245 22.5861 8.70324 23.2828L10.128 24.7089C10.2208 24.8018 10.3311 24.8755 10.4524 24.9257C10.5737 24.976 10.7037 25.0019 10.8351 25.0019C10.9664 25.0019 11.0964 24.976 11.2177 24.9257C11.3391 24.8755 11.4493 24.8018 11.5421 24.7089L24.7089 11.5421C24.8961 11.3547 25.0012 11.1006 25.0012 10.8357C25.0012 10.5708 24.8961 10.3168 24.7089 10.1293L23.2828 8.70191C22.5861 9.09111 21.7815 9.24234 20.9911 9.1326C20.2007 9.02287 19.4677 8.65817 18.9034 8.0939C18.3392 7.52964 17.9745 6.79664 17.8647 6.00623C17.755 5.21582 17.9062 4.41119 18.2954 3.71455L16.872 2.29112ZM14.0465 0.878344C14.3249 0.599875 14.6555 0.378981 15.0193 0.228274C15.3832 0.0775677 15.7731 0 16.1669 0C16.5608 0 16.9507 0.0775677 17.3145 0.228274C17.6784 0.378981 18.009 0.599875 18.2874 0.878344L19.8481 2.44039C20.5292 3.12012 20.4079 4.07574 20.0641 4.65285C19.875 4.97119 19.7974 5.34343 19.8435 5.71079C19.8896 6.07814 20.0567 6.41968 20.3185 6.68148C20.5803 6.94327 20.9219 7.1104 21.2892 7.15648C21.6566 7.20256 22.0288 7.12496 22.3472 6.93594C22.9243 6.59341 23.8799 6.47079 24.5596 7.15185L26.1217 8.71523C26.4001 8.9937 26.621 9.32429 26.7717 9.68812C26.9224 10.052 27 10.4419 27 10.8357C27 11.2295 26.9224 11.6195 26.7717 11.9833C26.621 12.3472 26.4001 12.6778 26.1217 12.9562L12.9562 26.1217C12.6778 26.4001 12.3472 26.621 11.9833 26.7717C11.6195 26.9224 11.2295 27 10.8357 27C10.4419 27 10.052 26.9224 9.68812 26.7717C9.32429 26.621 8.9937 26.4001 8.71523 26.1217L7.15319 24.5609C6.47346 23.8812 6.59341 22.9243 6.93727 22.3485C7.1263 22.0301 7.2039 21.6579 7.15782 21.2905C7.11174 20.9232 6.9446 20.5817 6.68281 20.3199C6.42101 20.0581 6.07947 19.8909 5.71212 19.8449C5.34476 19.7988 4.97252 19.8764 4.65418 20.0654C4.07707 20.4079 3.12145 20.5292 2.44172 19.8481L0.878344 18.2861C0.599875 18.0076 0.378981 17.677 0.228274 17.3132C0.0775677 16.9494 0 16.5594 0 16.1656C0 15.7718 0.0775677 15.3818 0.228274 15.018C0.378981 14.6542 0.599875 14.3236 0.878344 14.0451L14.0465 0.878344Z" fill="white"/>
</svg>
